<?xml version="1.0" standalone="no"?>
<!DOCTYPE svg PUBLIC "-//W3C//DTD SVG 20010904//EN"
 "http://www.w3.org/TR/2001/REC-SVG-20010904/DTD/svg10.dtd">
<svg version="1.0" xmlns="http://www.w3.org/2000/svg"
 width="1000.000000pt" height="1000.000000pt" viewBox="0 0 1000.000000 1000.000000"
 preserveAspectRatio="xMidYMid meet">
<metadata>
Created by potrace 1.14, written by Peter Selinger 2001-2017
</metadata>
<g transform="translate(0.000000,1000.000000) scale(0.100000,-0.100000)"
fill="#000000" stroke="none">
<path d="M4035 6280 c-151 -29 -239 -69 -379 -169 -83 -59 -210 -177 -240
-223 -30 -46 -39 -34 -31 45 4 39 9 81 11 91 2 10 6 58 10 105 4 47 8 89 11
94 2 4 -2 8 -9 8 -43 4 -1161 3 -1166 -1 -8 -6 -8 -4 -16 -90 -4 -36 -13 -105
-21 -155 -8 -49 -16 -108 -20 -130 -5 -36 -11 -75 -21 -130 -10 -55 -44 -244
-49 -270 -2 -16 -7 -41 -10 -55 -3 -14 -8 -45 -11 -70 -3 -25 -9 -61 -14 -80
-5 -19 -13 -66 -19 -105 -11 -69 -15 -95 -26 -145 -3 -14 -8 -43 -10 -65 -3
-22 -7 -47 -10 -55 -2 -8 -7 -35 -10 -60 -3 -24 -9 -60 -14 -80 -5 -19 -12
-57 -16 -83 -3 -27 -8 -59 -11 -70 -2 -12 -8 -47 -13 -77 -5 -30 -30 -172 -55
-315 -52 -294 -57 -322 -62 -350 -19 -107 -64 -366 -68 -390 -3 -16 -7 -44
-10 -60 l-5 -30 609 0 c535 0 611 2 615 15 4 14 41 225 51 295 3 17 16 91 30
165 13 74 31 171 39 215 8 44 16 94 19 110 4 27 81 462 90 511 3 12 7 39 10
60 63 404 163 569 347 579 94 5 150 -33 197 -134 36 -77 34 -186 -8 -411 -17
-96 -33 -186 -35 -200 -2 -14 -6 -38 -9 -55 -17 -92 -68 -374 -71 -395 -2 -14
-18 -104 -35 -200 -17 -96 -42 -236 -55 -310 -13 -74 -28 -156 -33 -182 -5
-25 -6 -50 -3 -55 3 -5 277 -9 609 -8 527 0 603 2 607 15 2 8 7 31 10 50 3 19
8 42 10 50 3 8 7 31 9 50 3 19 15 87 26 150 12 63 23 124 24 135 5 33 21 125
31 175 2 14 7 41 10 60 3 19 10 58 15 85 5 28 12 66 15 85 3 19 8 46 10 60 10
49 15 75 20 110 6 38 9 56 25 135 5 28 12 66 15 85 23 146 59 334 72 380 39
136 113 251 191 297 92 54 245 28 293 -50 46 -76 53 -213 19 -387 -10 -55 -54
-304 -65 -370 -3 -19 -16 -96 -30 -170 -13 -74 -26 -148 -29 -165 -11 -63 -66
-381 -71 -405 -3 -14 -10 -52 -15 -85 -5 -33 -12 -71 -15 -85 -5 -25 -11 -62
-19 -110 -2 -14 -7 -41 -11 -60 l-6 -35 610 0 c335 0 612 2 615 5 3 3 8 21 11
40 3 19 8 42 10 50 2 8 6 37 10 64 3 27 8 52 10 55 1 3 6 24 9 46 13 80 56
331 61 355 3 14 8 37 10 52 2 15 9 53 14 85 6 32 13 72 16 88 3 17 7 41 10 55
2 14 9 52 14 85 6 33 13 74 16 90 5 27 9 54 21 125 3 14 9 50 15 80 23 128 41
227 44 250 2 14 10 64 19 110 8 47 18 99 21 115 13 77 20 170 20 285 -1 347
-165 639 -445 788 -160 86 -290 113 -520 107 -193 -4 -333 -37 -455 -105 -83
-46 -201 -138 -285 -222 l-86 -88 -24 43 c-91 164 -264 295 -450 340 -110 27
-121 29 -275 32 -114 2 -171 -1 -240 -15z"/>
<path d="M7760 4585 c-207 -44 -368 -156 -468 -322 -115 -193 -144 -449 -69
-613 52 -115 147 -215 255 -270 160 -80 336 -98 542 -56 92 19 239 103 317
182 131 131 206 312 212 507 8 248 -154 465 -410 552 -71 24 -102 28 -204 30
-66 1 -145 -3 -175 -10z"/>
</g>
</svg>
